<svg id="Layer_6" data-name="Layer 6" xmlns="http://www.w3.org/2000/svg" viewBox="0 0 48.72 48.72"><defs><style>.cls-1{fill:none;}.cls-2{fill:#6a3d90;}</style></defs><rect class="cls-1" width="48.72" height="48.72"/><path class="cls-2" d="M57.38,50l4.46-4.47a1,1,0,0,0,0-1.35l-4.46-4.46h0l-9.66-9.65a.94.94,0,0,0-1.35,0l-3.78,3.78a1,1,0,0,0,0,1.35l9,9a1,1,0,0,1,0,1.35l-9,9a1,1,0,0,0,0,1.35l3.78,3.78a1,1,0,0,0,1.35,0L57.38,50Z" transform="translate(-37.29 -20.5)"/><path class="cls-2" d="M76.25,50l4.46-4.47a1,1,0,0,0,0-1.35l-4.46-4.46h0l-9.65-9.65a.94.94,0,0,0-1.35,0l-3.78,3.78a1,1,0,0,0,0,1.35l9,9a1,1,0,0,1,0,1.35l-9,9a1,1,0,0,0,0,1.35l3.78,3.78a1,1,0,0,0,1.35,0L76.24,50Z" transform="translate(-37.29 -20.5)"/></svg>