<svg id="WorldGlobe" xmlns="http://www.w3.org/2000/svg" viewBox="0 0 150.21 148.92"><defs><style>.cls-1{fill:#fff;}.cls-2{fill:#33204f;}</style></defs><path class="cls-1" d="M75,149.46c41.34,0,75.1-33.47,75.1-74.46S116.34.54,75,.54-.1,34-.1,75,33.66,149.46,75,149.46Z" transform="translate(0.1 -0.54)"/><path class="cls-2" d="M87.93,27.65a89,89,0,0,0,0-11.21,85.84,85.84,0,0,0,8.79,4.23c1.47.61,19.08,9.32,29.11,27.77-.81-1.49,2.57,2.43,2.57,6.67.25,0,4,4.61,1.47,4.61-5.75,0-4.4-1.09-6.12,3-.61,1.21-1.59-.73-1.59,5.09a41.56,41.56,0,0,0-.48,4.61c-5.39,0-4.16,2.06-7.34,2.06,0,1-3.06-.24-3.06-3.51,0-1.09-2.81-3.64-5.14-3.64-3.28,0-5.37,0-5.37,0a16.61,16.61,0,0,0-.38,4.1,4.52,4.52,0,0,0-3,1.14,18.33,18.33,0,0,1,1.39,6.62c.86,0,4,6.07,8.32,6.07,4.09,0,5.57-.4,6.07.22s.17,1.7.17,4.39c0,1.82-1.1,5.7-3.06,5.7,0,1.57-3.67,1.33-3.67,4.6-2.69,1.34-2.32,10.43-4.65,12.86-1.71,1.7-4.65,5.34-4.65,6.67-.49,0-4.64,5-4.64,6.18-.49,0-8.25,8.8-8.31,7.43a20.5,20.5,0,0,0-1.83-4.74c-1.17-1.75-4.42-3.17-4.42-3.17,0-4.85.27-9.65-1-13.46v-8.13c-4.4,0-18.2-1.15-18.71-1.09-.12-.54-6.94-8.39-7.92-8.88,0,0,.21-14.77.21-18.28,0-.12,5.51-3.16,6.12-3.16a30.42,30.42,0,0,1,5.26-4.61c1.59-.82,3.92-1.34,6.23-4,0-3.15,1.11-2.06,5.63-2.06,0,1.7,4.65-1.09,4.65,1.46,0,2.18,1.1-.37,1.1,3.15.49,0,15-1.47,15-1.58.93-1.68,1.44-2.84,1.44-2.84a42.86,42.86,0,0,0,5.28-.19c1.53-1.34,1.75-10.15,0-10.79-2.76-1-6.64-2.61-9.38-3.69a4.94,4.94,0,0,0-3.13-1.53c-1.72,0-6.24-.48-9.3-.48H62.65c0-2.18-3.06.12-3.06-5.1,3.06,0,16.51-10.06,16.51-11.88C78.91,28.31,87.93,27.65,87.93,27.65Z" transform="translate(0.1 -0.54)"/></svg>