<svg id="Layer_3" data-name="Layer 3" xmlns="http://www.w3.org/2000/svg" viewBox="0 0 462.59 458.64"><defs><style>.cls-1{fill:#fff;}.cls-1,.cls-2{fill-rule:evenodd;}.cls-2{fill:#33204f;}</style></defs><path class="cls-1" d="M1635.8,1741.32c127.39,0,231.34-103.06,231.34-229.36s-104-229.28-231.34-229.28-231.26,103-231.26,229.28,103.86,229.36,231.26,229.36Z" transform="translate(-1404.54 -1282.68)"/><path class="cls-2" d="M1721.94,1493.78a38,38,0,0,0-7.07-2.07,14.93,14.93,0,0,0-16.65,9.71l-1.84,5.06a15,15,0,0,0,1.33,13l9.85,16a14.92,14.92,0,0,0,6.39,5.72l19.56,9.21a15,15,0,0,1,8.37,10.85l.2,1.09a15,15,0,0,1-3.51,12.65l-14.1,16a15,15,0,0,0-2.34,3.57l-16.72,35.74a15.23,15.23,0,0,1-1.37,2.34l-33.77,47.52a15,15,0,0,1-23.09,1.66l-8.73-9.15a15,15,0,0,1-4.15-10.35v-55.13a15,15,0,0,0-6.77-12.55h0a15,15,0,0,0-9.07-2.43l-38.43,2.15a15,15,0,0,1-11.47-4.39c-8-8-23.47-23.89-28.18-34.65a14.15,14.15,0,0,1-.94-7.56l2.86-21.41c1.12-6.9,4.38-10.56,8.42-14.31l46.2-39.28a15.08,15.08,0,0,1,7.33-3.38l18.06-2.91a14.9,14.9,0,0,1,9,1.32l29.73,14.46a15,15,0,0,0,6.57,1.51H1683c8,0,16.67-6.55,30.41-13.28,3.78-1.88,4.12-6,4.21-9.2l.56-7.84a14.92,14.92,0,0,0-4.39-11.74c-7.89-7.76-21.66-18.48-36.11-22.37a15.09,15.09,0,0,0-3.85-.47h-100.7c-2.83,0-4.64-1.1-2.06-8.94l3.22-7.76a14.86,14.86,0,0,1,2.71-4.28l8.57-9.52a14.93,14.93,0,0,1,4.24-3.29l33.38-17.3a15.34,15.34,0,0,1,3.46-1.29l26.71-6.3c4.9-1.19,5.67-4.09,6-8.09l1.11-7.32c1.46-7.41,5.07-7.41,11.52-7.07l16.3,4.17a15.1,15.1,0,0,1,3.77,1.54l32.7,18.85a15.16,15.16,0,0,1,3.34,2.62l59.77,62.42a29.6,29.6,0,0,1,4.49,7.55,14.87,14.87,0,0,1,1,5.87l-.31,11.86A15,15,0,0,1,1784,1466c-1.36.58-2.68,1.08-3.92,1.55a15,15,0,0,0-8.62,8.63l-9.2,24a15,15,0,0,1-10.51,9.22l-2.12.5a15,15,0,0,1-14.28-4.16l-8.08-8.35A15.14,15.14,0,0,0,1721.94,1493.78Z" transform="translate(-1404.54 -1282.68)"/></svg>