<svg id="GradStudent" xmlns="http://www.w3.org/2000/svg" viewBox="0 0 130 150"><defs><style>.cls-1{fill:#fff;}</style></defs><path class="cls-1" d="M136.34,14.8,78.34.15a4.83,4.83,0,0,0-2.3,0L13.73,14.85a4.84,4.84,0,0,0-.28,9.34l3.76,1.14V43.75C13,44.37,10,46.26,10,48.48s3,4.1,7.21,4.73v1.87a55.32,55.32,0,0,1-3.83,15.8A55.55,55.55,0,0,1,10,77.74H29.59a42.38,42.38,0,0,1-6.08-18.21V53.17c4-.66,7-2.51,7-4.69s-2.93-4-7-4.69V27.23l14.21,4.28a40,40,0,1,0,75.44-.07l23.37-6.92A4.84,4.84,0,0,0,140,19.88V19.5A4.86,4.86,0,0,0,136.34,14.8Z" transform="translate(-10)"/><path class="cls-1" d="M105.6,95.81a34.76,34.76,0,0,0-6.25.57L75,122.45,50.65,96.38a34.76,34.76,0,0,0-6.25-.57A34.38,34.38,0,0,0,16.28,150H133.72A34.38,34.38,0,0,0,105.6,95.81Z" transform="translate(-10)"/></svg>