<svg id="HandShake" xmlns="http://www.w3.org/2000/svg" viewBox="0 0 150 90.12"><defs><style>.cls-1{fill:#fff;}</style></defs><path class="cls-1" d="M122,42.91,103.66,26.36H43.9L26.22,42.91H0V103H18.9l4-8.52,23.69,20.12a8,8,0,0,0,5.14,1.89h9.66A5,5,0,0,0,64.87,115l3.37-3.39a.92.92,0,0,1,1.32,0l3.12,3.14a5.86,5.86,0,0,0,4.12,1.71h3.26a6.57,6.57,0,0,0,3.1-.78l7.2-3.86a2,2,0,0,1,1-.23l6.79.43a5.1,5.1,0,0,0,4-1.64l12.38-13.54V95.09l10.37.55,4.27,7.35H150V42.91Zm-111,54.46a2.76,2.76,0,1,1,2.75-2.76A2.75,2.75,0,0,1,10.94,97.37ZM101.44,96l-5.24,5.52c-1.28,1.35-2.67,1.2-4.62.38,0,0-4.35-2.76-4.28-2.63l-5.83,6.92a4.11,4.11,0,0,1-6,.65l-6.24-5.34a2,2,0,0,0-2.71.11l-5.1,5.13a4.59,4.59,0,0,1-6.17.31l-23.2-19-10-.39V57H33.3L47,42.71H61.59L50.81,54.83c-1.12,1.41-4.47,8-2.84,12.67l6.1,7.92c.93,1.25,8,6.75,9.48,6.39l5.69.13c2.11-.5,7.87-4,9.4-6.77l22.69,19A1.33,1.33,0,0,1,101.44,96Zm10.45-8.58a4.55,4.55,0,0,1-2.79-.95L87,69.48l1.41-2c2-2.81,1.81-5.19-.67-7.81l-3-2.76c-2.06-1.38-4.4-.3-6.17,1.43l-8.4,9.19c-.84.82-3.43,2.31-4.58,2.08-1.4-.28-5.85-5-5.85-5a4.6,4.6,0,0,1,1-5l13.7-16.22c.53-.53,3.64-.61,4.39-.61h22.33a1.43,1.43,0,0,1,1.12.54l17.28,14.9a3,3,0,0,0,2.31,1.11h3.35l.2,28.2Zm25.47,9.91a2.76,2.76,0,1,1,2.75-2.76A2.75,2.75,0,0,1,137.36,97.37Z" transform="translate(0 -26.36)"/></svg>