<svg id="TraceOnTop" xmlns="http://www.w3.org/2000/svg" viewBox="0 0 101.26 86.82"><defs><style>.cls-1{fill:#fff;stroke:#6a3f91;stroke-miterlimit:10;}.cls-2{fill:#6a3f91;}</style></defs><path class="cls-1" d="M1040.3,657.46H993.24a9.89,9.89,0,0,0-9.89,9.9v31.78c0,.3,0,.6,0,.9h0v20.29a.84.84,0,0,0,1.49.53l10-12.35a.84.84,0,0,1,.66-.32h44.83a9.89,9.89,0,0,0,9.89-9.89V667.36A9.89,9.89,0,0,0,1040.3,657.46Z" transform="translate(-982.85 -656.96)"/><path class="cls-1" d="M1026.66,679.57h47.06a9.89,9.89,0,0,1,9.89,9.89v31.79c0,.3,0,.6,0,.89h0v20.3a.85.85,0,0,1-1.5.53l-10-12.36a.83.83,0,0,0-.65-.31h-44.83a9.89,9.89,0,0,1-9.89-9.9V689.46A9.89,9.89,0,0,1,1026.66,679.57Z" transform="translate(-982.85 -656.96)"/><circle class="cls-2" cx="50.72" cy="48.7" r="3.84"/><circle class="cls-2" cx="83.96" cy="48.7" r="3.84"/><circle class="cls-2" cx="67.34" cy="48.7" r="3.84"/></svg>