<svg id="Layer_3" data-name="Layer 3" xmlns="http://www.w3.org/2000/svg" viewBox="0 0 52.67 50.36"><defs><style>.cls-1{fill:#6a3d90;}</style></defs><path class="cls-1" d="M970.54,700.07l6,12.18a2.76,2.76,0,0,0,2.07,1.5l13.44,2a2.75,2.75,0,0,1,1.52,4.69l-9.72,9.48a2.74,2.74,0,0,0-.79,2.43l2.29,13.39a2.74,2.74,0,0,1-4,2.89l-12-6.32a2.76,2.76,0,0,0-2.56,0l-12,6.32a2.74,2.74,0,0,1-4-2.89l2.29-13.39a2.74,2.74,0,0,0-.79-2.43l-9.72-9.48a2.75,2.75,0,0,1,1.52-4.69l13.44-2a2.76,2.76,0,0,0,2.07-1.5l6-12.18A2.74,2.74,0,0,1,970.54,700.07Z" transform="translate(-941.74 -698.54)"/></svg>