<svg id="Layer_1" data-name="Layer 1" xmlns="http://www.w3.org/2000/svg" viewBox="0 0 24 24"><defs><style>.cls-1{fill:#32a936;}</style></defs><path class="cls-1" d="M3.52,3.52A12,12,0,1,1,6.73,22.78l-5.81.74a.39.39,0,0,1-.44-.34v-.1l.75-5.79A12,12,0,0,1,3.52,3.52Zm3.61,17,.3.16A9.85,9.85,0,1,0,3.3,16.6l.16.3L3,20.84a.19.19,0,0,0,.16.22h.05l4-.5Zm6.53-7-.93,1.16a9.78,9.78,0,0,1-3.5-3.5l1.17-.93a.8.8,0,0,0,.23-.94L9.56,7a.81.81,0,0,0-.92-.45L6.61,7A.79.79,0,0,0,6,7.92a11.75,11.75,0,0,0,10,10,.79.79,0,0,0,.88-.58l.53-2a.81.81,0,0,0-.45-.92L14.6,13.33a.79.79,0,0,0-.94.23Z" transform="translate(0 0)"/></svg>